# xmcd
#
# Track frame offsets: 
#        150
#        27020
#        51707
#        77225
#        95562
#        117715
#        138415
#        163827
#        185562
#        206175
#        228100
#        249505
#        271412
#
# Disc length: 3932 seconds
#
# Revision: 0
# Processed by: cddbd v1.5.2PL0 Copyright (c) Steve Scherf et al.
# Submitted via: ExactAudioCopy v1.0b3
#
DISCID=c10f5a0d
DTITLE=Root Jackson's U.F.B.I - Funkin with da blues
DYEAR=2001
DGENRE=Blues
TTITLE0=Funkin with da blues
TTITLE1=Unreal values
TTITLE2=Feel the heat
TTITLE3=Now you see me,now you don't 
TTITLE4=Tell the truth
TTITLE5=Life is for teaching
TTITLE6=Keep the good things coming
TTITLE7=Kilburn high road blues
TTITLE8=Go for it
TTITLE9=Goodbye lover
TTITLE10=Well runs dry
TTITLE11=Rastafari celebration
TTITLE12=Rugged road
EXTD=
EXTT0=
EXTT1=
EXTT2=
EXTT3=
EXTT4=
EXTT5=
EXTT6=
EXTT7=
EXTT8=
EXTT9=
EXTT10=
EXTT11=
EXTT12=
PLAYORDER=
